<svg width="90" xmlns="http://www.w3.org/2000/svg" viewBox="0 0 394 172.3">
	<path fill="#ff4f4f" d="M265.4,50.7c11.6,19.4,22,31.7,25.8,35.7c1.1,1.1,3,2.9,5.7,3.2c0.6,0.1,3.5,0.3,5.8-1.7
			c0.3-0.3,2.3-2.1,2.3-4.7c0-0.3,0-1.1-0.3-2.1c-0.5-1.7-1.6-2.7-2.1-3.1c0,0-16.2-18.3-21.7-29.6l0,0
			c21.1-3.1,39.9-1.6,100.3,22.3c5.2,2,7.7-1.5,7.7-1.5c2-2.2,2-5.2,2-5.6c-0.1-1.9-0.4-4.2-3.2-6.3c-6.1-4.7-9-7-9.3-7.3
			c-19.9-13.5,0,0-19.9-13.5c-4.6-3.1-12.7-7.8-23.2-13.1c-14.8-7.4-27-11.7-33.1-13.8c-4.8-1.6-26.5-8.9-39-4.2
			c-1.2,0.5-4.1,1.6-6.6,4.4c-0.5,0.5-4.4,5-4.1,11.3c0.1,1.1,0.3,2,0.6,3.6c1,4.1,2.3,7.4,3.3,9.5l14.2-2.9c-0.4-0.8-1-2-1.6-3.6
			c-0.9-2.6-1.4-3.9-1-5.2c0.6-1.9,2.3-2.9,2.9-3.2c1.7-0.9,3.3-0.9,4.2-1c4.2-0.3,7.2-0.1,10.8,0.5c6.8,1.2,10.2,1.8,13.4,2.7
			c6.7,1.8,11.4,3.8,20.2,7.5c4.1,1.7,8.7,3.7,14.8,6.6c7.4,3.6,16.7,8.4,27.2,15c-13.7-6.4-25.9-10.1-35-12.2
			c-9.9-2.3-18.1-3.3-23.1-3.7c-4.6-0.4-11.8-1.1-21.4-0.6c-4.4,0.2-13.8,0.8-25.5,3.5c-8.4,1.9-14.5,4.1-20.3,6.2
			c-8.3,3-14.8,5.9-18.5,7.6c-0.7,0.3-1.4,0.6-2,1c-6,2.9-10.5,5.3-12.2,6.3c-23.9,14.5-27.7,18.6-28.1,22.1
			c-0.1,0.9-0.1,1.8-0.1,1.8c0.2,2.3,1.9,4.5,2.3,4.8c3.3,2.7,7.3,2.4,12.7-1.6C228.1,58.2,265.4,50.7,265.4,50.7z"/>
    <path fill="#fff" d="M45.2,165.8c0,0.6-0.2,1.1-0.5,1.6c-0.3,0.2-0.8,0.4-1.6,0.5c-0.4,0-1-0.2-1.7-0.7c-0.7-0.5-1.2-1.2-1.4-2.2l-3.6-8.3
			H12.1l-3.4,8.4c-0.4,0.9-0.9,1.6-1.6,2.1c-0.7,0.5-1.4,0.8-2.1,0.8c-0.4,0-0.8-0.2-1.2-0.5s-0.6-0.9-0.6-1.6l0.4-1.7L20,118.2
			c0.3-0.9,0.8-1.6,1.5-2.2c0.7-0.6,1.5-0.9,2.3-0.9c0.8,0,1.6,0.3,2.4,0.8c0.8,0.5,1.4,1.3,1.8,2.3L45,164.1l0.2,0.8L45.2,165.8z
			M34.3,151.1l-10.2-29l-10.3,29H34.3z"/>
	<path fill="#fff" d="M65.6,134.6c0,0.8-0.3,1.5-1,2c-0.5,0.2-0.9,0.4-1.4,0.5l-2.2,0.6c-1,0.2-1.7,0.5-2.3,0.8c-1.2,1-2.3,2.2-3.4,3.8
			c-0.4,0.9-0.7,1.8-0.9,2.7c-0.2,0.9-0.3,2-0.3,3.2v17c0,0.8-0.2,1.4-0.6,1.8c-0.4,0.4-0.9,0.6-1.7,0.6c-0.6,0-1.1-0.2-1.5-0.6
			c-0.4-0.2-0.6-0.8-0.7-1.7V134c0-0.9,0.2-1.5,0.7-1.8c0.4-0.4,0.9-0.6,1.5-0.6c0.7,0,1.2,0.2,1.6,0.6c0.4,0.4,0.6,1,0.6,1.8v4
			c0.7-1,1.1-1.6,1.3-1.8c0.7-1,1.6-1.9,2.5-2.9c1.3-1.4,2.6-2.1,4-2.1c1.2,0,2.1,0.3,2.7,1C65.3,132.7,65.6,133.5,65.6,134.6z"/>
	<path fill="#fff" d="M92.2,136.2c0,0.7-0.3,1.3-0.8,1.8c-0.5,0.5-1.1,0.8-1.8,0.8l-0.4-0.2l-1.3-0.6c-1.3-0.8-2.9-1.2-4.6-1.2
			c-2.1,0-3.9,0.7-5.4,2c-1.5,1.3-2.6,3-3.5,5.1c-0.9,2.1-1.3,4.2-1.3,6.4c0,1,0.1,1.9,0.3,2.9c0.2,1,0.5,2,0.9,3.1
			c0.8,2,1.9,3.6,3.3,4.8c1.4,1.2,3.2,1.8,5.3,1.8c2,0,3.8-0.4,5.4-1.2c0.4-0.3,0.9-0.4,1.4-0.4c0.7,0,1.2,0.2,1.6,0.6
			c0.4,0.4,0.7,1,0.8,1.8c0,0.7-0.4,1.5-1.3,2.2c-0.8,0.7-2,1.2-3.5,1.6l-2.3,0.6h-2.3c-2.2,0-4.5-0.7-7-2
			c-2.3-1.3-4.2-3.4-5.7-6.3c-1.5-2.8-2.2-6.3-2.2-10.5c0-3.4,0.7-6.4,2.2-9c1.4-2.7,3.4-4.8,5.9-6.3c2.5-1.5,5-2.3,7.4-2.3			c1.2,0,2.3,0.2,3.4,0.4c1.1,0.3,1.9,0.6,2.5,0.8c0.6,0.2,1.1,0.6,1.7,1C91.8,134.5,92.2,135.2,92.2,136.2z"/>
	<path fill="#fff" d="M125.2,147.5v1.3l-0.4,1.4c-0.1,0.5-0.3,1.1-0.7,1.7c-0.4,0.4-0.8,0.6-1.3,0.6h-22.7c0,1.9,0.5,3.7,1.5,5.4
			c1,1.7,2.4,3.2,4,4.3c1.6,1.1,3.4,1.7,5.4,1.7c1.7,0,3.3-0.4,4.5-1.1c1.3-0.7,2.7-1.7,4.2-3.1c0.6-0.7,1.3-1.1,2.2-1.1
			c0.5,0,1,0.3,1.5,0.9c0.5,0.6,0.8,1.1,0.8,1.6c0,0.2-0.2,0.6-0.4,1.1c-3.2,3.8-7.5,5.7-12.7,5.7c-3.7,0-6.8-0.9-9.1-2.6
			c-2.4-1.7-4.2-3.9-5.4-6.5c-1.1-2.6-1.6-5.3-1.6-8c0-2.3,0.3-4.4,1-6.5c0.6-2.2,1.5-4.2,2.8-6.2l2.1-2.5c0.6-0.5,1-0.9,1.2-1
			c0.5-0.4,1-0.7,1.5-1c1.9-1.2,4.1-1.8,6.5-1.8c2.6,0,4.9,0.5,6.7,1.5c2,1,3.6,2.3,4.8,4c1.3,1.7,2.2,3.4,2.8,5.3
			C124.9,144.4,125.2,146,125.2,147.5z M119.8,147.9c0-1.1,0-2-0.1-2.5c-0.1-0.5-0.3-1.4-0.6-2.6s-1-2.3-1.9-3.3
			c-0.9-1-2-1.9-3.2-2.5c-1.2-0.6-2.6-0.9-4-0.9c-1.6,0-3.2,0.5-4.7,1.4c-1.5,0.9-2.7,2.3-3.5,4c-0.3,0.6-0.6,1.2-0.8,1.7
			c-0.2,0.5-0.4,1.1-0.6,1.8c-0.2,0.6-0.3,1.6-0.3,3H119.8z"/>
	<path fill="#fff" d="M134.9,165.3c0,0.7-0.2,1.2-0.7,1.7c-0.4,0.4-1,0.7-1.6,0.7c-0.7,0-1.3-0.2-1.8-0.6c-0.3-0.4-0.5-0.9-0.6-1.7v-46.7
			c0-0.7,0.2-1.3,0.7-1.7c0.5-0.4,1-0.6,1.7-0.6c0.5,0,0.9,0.2,1.4,0.5c0.4,0.4,0.7,0.9,0.9,1.7V165.3z"/>
	<path fill="#fff" d="M169.9,149.9c0,12-4.9,18-14.8,18c-3.7,0-6.5-0.9-8.6-2.6c-2.1-1.7-3.7-4-4.8-6.8c-1-2.8-1.4-5.6-1.4-8.6
			c0-2.2,0.1-4,0.4-5.4c0.2-1.4,0.7-2.9,1.4-4.3c0.7-1.4,1.4-2.7,2.3-3.6c0.9-1,1.9-1.9,3.1-2.7c2.2-1.4,4.8-2.1,7.7-2.1				c3.2,0,5.9,0.8,8.1,2.3c1.1,0.7,2,1.6,2.9,2.7c0.8,1.1,1.6,2.3,2.2,3.7C169.3,143.3,169.9,146.4,169.9,149.9z M164.8,149.9
			c0-2.5-0.4-4.8-1.2-6.9c-0.8-2.1-2-3.8-3.5-5c-1.6-1.3-3.3-1.9-5.1-1.9c-3.1,0-5.5,1.2-7.2,3.7c-1.7,2.5-2.6,5.9-2.6,10.1				c0,1.1,0.1,2.1,0.2,2.9c0.1,0.9,0.4,2.2,0.9,3.9c0.5,1.7,1.5,3.3,3,4.9c1.5,1.5,3.4,2.3,5.7,2.3c2.2,0,4-0.5,5.5-1.5
			c1.4-0.8,2.4-2.4,3.2-4.5C164.5,155.6,164.8,153,164.8,149.9z"/>
	<path fill="#fff" d="M189.2,134.6c0,0.8-0.3,1.5-1,2c-0.5,0.2-0.9,0.4-1.4,0.5l-2.2,0.6c-1,0.2-1.7,0.5-2.3,0.8c-1.2,1-2.3,2.2-3.4,3.8
			c-0.4,0.9-0.7,1.8-0.9,2.7c-0.2,0.9-0.3,2-0.3,3.2v17c0,0.8-0.2,1.4-0.6,1.8c-0.4,0.4-0.9,0.6-1.7,0.6c-0.6,0-1.1-0.2-1.5-0.6
			c-0.4-0.2-0.6-0.8-0.7-1.7V134c0-0.9,0.2-1.5,0.7-1.8c0.4-0.4,0.9-0.6,1.5-0.6c0.7,0,1.2,0.2,1.6,0.6c0.4,0.4,0.6,1,0.6,1.8v4
			c0.7-1,1.1-1.6,1.3-1.8c0.7-1,1.6-1.9,2.5-2.9c1.3-1.4,2.6-2.1,4-2.1c1.2,0,2.1,0.3,2.7,1C188.9,132.7,189.2,133.5,189.2,134.6z"/>
	<path fill="#fff" d="M246.9,164.2c0,1-0.3,1.7-0.8,2.3c-0.5,0.5-1.1,0.8-1.9,0.8c-0.5,0-1.1-0.3-1.7-0.8c-0.6-0.5-0.9-1.2-1-1.9l-6.1-42.2
			l-13.5,42.2c-0.5,2-1.5,3.1-2.9,3.1c-1.3,0-2.2-1-2.8-3.1l-13-42.4l-6.3,42.4l-0.3,1.1l-0.6,1l-1,0.7l-0.9,0.3
			c-0.5,0-1.1-0.3-1.6-0.8c-0.5-0.5-0.8-1.4-0.8-2.5l0.2-1.3l0.8-5l2.2-14.7l3.6-24c0.3-1.4,0.9-2.4,1.7-3.1s1.7-1.1,2.8-1.1
			c1,0,1.9,0.3,2.9,0.9c0.9,0.6,1.6,1.5,1.9,2.7l11.3,39.3l11.9-39.3c0.3-1.1,0.9-1.9,1.8-2.6c0.4-0.3,0.8-0.5,1.2-0.7
			c0.4-0.2,1-0.3,1.8-0.4c1.1,0,2.1,0.4,3,1.2c0.9,0.8,1.3,1.8,1.3,3.1L246.9,164.2z"/>
	<path fill="#fff" d="M257.4,124c0,0.8-0.4,1.5-1.1,2.1c-0.7,0.6-1.4,0.9-2.1,0.9c-0.7,0-1.5-0.3-2.3-1c-0.8-0.7-1.2-1.4-1.2-2.2
			c0-0.8,0.3-1.6,0.9-2.2s1.4-1,2.4-1.1c0.8,0,1.5,0.4,2.2,1.1C257,122.4,257.4,123.1,257.4,124z M256.8,165.3
			c0,0.7-0.2,1.3-0.6,1.7c-0.4,0.4-1,0.6-1.6,0.6c-0.7,0-1.2-0.2-1.7-0.6c-0.3-0.4-0.5-0.9-0.6-1.7V134c0-0.7,0.2-1.3,0.7-1.8
			c0.5-0.4,1-0.7,1.7-0.7c0.5,0,1,0.2,1.5,0.7c0.5,0.3,0.7,0.9,0.7,1.7V165.3z"/>
	<path fill="#fff" d="M276.3,134.6c0,0.5-0.2,0.9-0.5,1.4c-0.4,0.4-0.9,0.6-1.7,0.6H271v28.7c0,0.7-0.2,1.3-0.7,1.7c-0.5,0.4-1,0.6-1.5,0.6
			c-0.7,0-1.2-0.2-1.6-0.5c-0.4-0.4-0.7-1-0.8-1.8v-28.7h-3.1c-0.7,0-1.2-0.2-1.6-0.7c-0.4-0.5-0.6-0.9-0.6-1.3s0.2-0.8,0.5-1.3
			c0.4-0.5,0.9-0.8,1.7-0.9h3.1v-8.6c0-0.7,0.3-1.2,0.8-1.7c0.5-0.4,1.1-0.7,1.7-0.7c0.5,0,1,0.2,1.4,0.5c0.4,0.4,0.7,1,0.8,1.8
			v8.6h3.1c0.8,0,1.3,0.2,1.6,0.7C276.1,133.5,276.3,134,276.3,134.6z"/>
	<path fill="#fff" d="M294.1,134.6c0,0.5-0.2,0.9-0.5,1.4c-0.4,0.4-0.9,0.6-1.7,0.6h-3.1v28.7c0,0.7-0.2,1.3-0.7,1.7c-0.5,0.4-1,0.6-1.5,0.6
			c-0.7,0-1.2-0.2-1.6-0.5c-0.4-0.4-0.7-1-0.8-1.8v-28.7H281c-0.7,0-1.2-0.2-1.6-0.7c-0.4-0.5-0.6-0.9-0.6-1.3s0.2-0.8,0.5-1.3
			c0.4-0.5,0.9-0.8,1.7-0.9h3.1v-8.6c0-0.7,0.3-1.2,0.8-1.7c0.5-0.4,1.1-0.7,1.7-0.7c0.5,0,1,0.2,1.4,0.5c0.4,0.4,0.7,1,0.8,1.8
			v8.6h3.1c0.8,0,1.3,0.2,1.6,0.7C293.9,133.5,294.1,134,294.1,134.6z"/>
	<path fill="#fff" d="M325.9,165.8c0,0.7-0.2,1.3-0.7,1.7c-0.5,0.4-1,0.6-1.5,0.6c-0.6,0-1.1-0.2-1.6-0.6c-0.5-0.4-0.7-1-0.7-1.8v-2.5
			c-1,1.2-2.6,2.3-4.6,3.3c-2.2,0.8-4.4,1.3-6.6,1.3c-2.2,0-4.4-0.7-6.5-2.1c-1.9-1.1-3.6-3.2-5.1-6.1c-1.3-2.8-1.9-6.1-1.9-9.8
			c0-3.2,0.4-5.9,1.4-8.3c0.9-2.3,2.1-4.3,3.7-5.8c0.8-0.8,1.5-1.4,2.2-1.9c0.7-0.5,1.5-1,2.4-1.5c0.4-0.1,1-0.3,2.1-0.7
			c1-0.3,1.9-0.5,2.8-0.5c1.8,0,3.7,0.6,5.8,1.8c1.9,1.3,3.4,2.8,4.4,4.7v-4.2c0-0.7,0.2-1.2,0.5-1.6c0.4-0.3,0.9-0.6,1.7-0.7
			c0.5,0,1,0.2,1.5,0.5c0.5,0.4,0.8,0.9,0.8,1.7V165.8z M321.4,149.9c0-2.9-0.4-5.4-1.2-7.4c-0.7-2-1.8-3.6-3.4-4.8
			c-1.6-1.1-3.5-1.7-5.6-1.7c-2,0-3.8,0.6-5.2,1.9c-1.4,1.2-2.5,2.9-3.2,5.1c-0.7,2.1-1.1,4.5-1.1,7c0,2.6,0.3,4.9,1,6.9
			c0.7,2,1.7,3.7,3.2,5.1c1.5,1.4,3.2,2,5.2,2c1.6,0,3.2-0.4,4.7-1.3c0.7-0.4,1.2-0.9,1.7-1.4c0.5-0.5,1-1.1,1.5-2
			c0.8-1.3,1.3-2.8,1.7-4.5C321.3,153.1,321.4,151.5,321.4,149.9z"/>
	<path fill="#fff" d="M336.5,165.3c0,0.7-0.2,1.2-0.7,1.7c-0.4,0.4-1,0.7-1.6,0.7c-0.7,0-1.3-0.2-1.8-0.6c-0.3-0.4-0.5-0.9-0.6-1.7v-46.7
			c0-0.7,0.2-1.3,0.7-1.7c0.5-0.4,1-0.6,1.7-0.6c0.5,0,0.9,0.2,1.4,0.5c0.4,0.4,0.7,0.9,0.9,1.7V165.3z"/>
</svg>